# xmcd
#
# Track frame offsets:
#	150
#	17922
#	29470
#	46105
#	66665
#	87165
#	97815
#	114720
#	127762
#	139615
#	153535
#	171772
#	188345
#	206895
#	226105
#	239097
#	254280
#	268352
#	280517
#
# Disc length: 3842 seconds
#
# Revision: 0
# Processed by: cddbd v1.5.2PL0 Copyright (c) Steve Scherf et al.
# Submitted via: EasyCDDAExtractor 16.0.8.2
#
DISCID=070f0013
DTITLE=Συλλογικός δίσκος - Τα τραγούδια της Λέρος 1
DYEAR=1998
DGENRE=Παραδοσιακή
TTITLE0=Κουτούζος Γιάγκος ή Χέχας - Του Προύζου
TTITLE1=Άνευ ερμηνευτού - Λέρικος [οργανικό]
TTITLE2=Λιβανός Γιάννης - Του Γιαννουκά
TTITLE3=Ελένης Γιώργης - Λέρικο έρι [του Μαρκάτσου]
TTITLE4=Κουτούζος Γιάγκος ή Χέχας - Του Γιαγκούλα
TTITLE5=Κουτσανέλου Ειρήνη - Νανούρισμα
TTITLE6=Νταλλαρής Αντώνης - Του Μπιλάλη
TTITLE7=Φασόλης Δημήτρης - Σούστα τραγουδιστή
TTITLE8=Ταχλιαμπούρη Αγγελική - Παστικά
TTITLE9=Γιαννακός Γιώργης - Του Λουλουργά
TTITLE10=Άνευ ερμηνευτού - Γέρος [ίσσος, οργανικό]
TTITLE11=Λίνδος Δημήτρης - Του Λίντου
TTITLE12=Άνευ ερμηνευτού - Σούστα Λέρου [οργανικό]
TTITLE13=Καστής Μανώλης - Της αυγής
TTITLE14=Άνευ ερμηνευτού - Σίρμπα [οργανικό]
TTITLE15=Νταλλαρής Νικήτας - Παπάς
TTITLE16=Νταλλαρής Αντώνης - Έλα να πάμεν όξω
TTITLE17=Άνευ ερμηνευτού - Καριώτικα [οργανικό]
TTITLE18=Χατζηδάκη Αιμιλία - Παστικά
EXTD=
EXTT0=
EXTT1=
EXTT2=
EXTT3=
EXTT4=
EXTT5=
EXTT6=
EXTT7=
EXTT8=
EXTT9=
EXTT10=
EXTT11=
EXTT12=
EXTT13=
EXTT14=
EXTT15=
EXTT16=
EXTT17=
EXTT18=
PLAYORDER=
